<?xml version="1.0" encoding="UTF-8" standalone="no"?>
<!DOCTYPE svg PUBLIC "-//W3C//DTD SVG 1.1//EN"
 "http://www.w3.org/Graphics/SVG/1.1/DTD/svg11.dtd">
<!-- Generated by graphviz version 2.38.0 (20140413.2041)
 -->
<!-- Title: %3 Pages: 1 -->
<svg width="1075pt" height="404pt"
 viewBox="0.00 0.00 1074.96 404.00" xmlns="http://www.w3.org/2000/svg" xmlns:xlink="http://www.w3.org/1999/xlink">
<g id="graph0" class="graph" transform="scale(1 1) rotate(0) translate(4 400)">
<title>%3</title>
<polygon fill="white" stroke="none" points="-4,4 -4,-400 1070.96,-400 1070.96,4 -4,4"/>
<!-- [root] aws_instance.east_backend -->
<g id="node1" class="node"><title>[root] aws_instance.east_backend</title>
<polygon fill="none" stroke="black" points="787.867,-108 572.867,-108 572.867,-72 787.867,-72 787.867,-108"/>
<text text-anchor="middle" x="680.367" y="-86.3" font-family="Times,serif" font-size="14.00">aws_instance.east_backend</text>
</g>
<!-- [root] provider.aws -->
<g id="node7" class="node"><title>[root] provider.aws</title>
<polygon fill="none" stroke="black" points="591.367,-36 492.329,-18 591.367,-3.55271e-15 690.406,-18 591.367,-36"/>
<text text-anchor="middle" x="591.367" y="-14.3" font-family="Times,serif" font-size="14.00">provider.aws</text>
</g>
<!-- [root] aws_instance.east_backend&#45;&gt;[root] provider.aws -->
<g id="edge1" class="edge"><title>[root] aws_instance.east_backend&#45;&gt;[root] provider.aws</title>
<path fill="none" stroke="black" d="M658.367,-71.6966C645.869,-61.866 630.156,-49.5078 617.089,-39.2303"/>
<polygon fill="black" stroke="black" points="618.968,-36.2556 608.944,-32.8245 614.641,-41.7577 618.968,-36.2556"/>
</g>
<!-- [root] var.zones_east -->
<g id="node9" class="node"><title>[root] var.zones_east</title>
<polygon fill="none" stroke="black" points="823.867,-36 708.867,-36 708.867,-0 829.867,-0 829.867,-30 823.867,-36"/>
<polyline fill="none" stroke="black" points="823.867,-36 823.867,-30 "/>
<polyline fill="none" stroke="black" points="829.867,-30 823.867,-30 "/>
<text text-anchor="middle" x="769.367" y="-14.3" font-family="Times,serif" font-size="14.00">var.zones_east</text>
</g>
<!-- [root] aws_instance.east_backend&#45;&gt;[root] var.zones_east -->
<g id="edge2" class="edge"><title>[root] aws_instance.east_backend&#45;&gt;[root] var.zones_east</title>
<path fill="none" stroke="black" d="M702.367,-71.6966C713.576,-62.8807 727.37,-52.0321 739.522,-42.4742"/>
<polygon fill="black" stroke="black" points="741.924,-45.0375 747.621,-36.1043 737.597,-39.5354 741.924,-45.0375"/>
</g>
<!-- [root] aws_instance.east_frontend -->
<g id="node2" class="node"><title>[root] aws_instance.east_frontend</title>
<polygon fill="none" stroke="black" points="867.367,-180 651.367,-180 651.367,-144 867.367,-144 867.367,-180"/>
<text text-anchor="middle" x="759.367" y="-158.3" font-family="Times,serif" font-size="14.00">aws_instance.east_frontend</text>
</g>
<!-- [root] aws_instance.east_frontend&#45;&gt;[root] aws_instance.east_backend -->
<g id="edge3" class="edge"><title>[root] aws_instance.east_frontend&#45;&gt;[root] aws_instance.east_backend</title>
<path fill="none" stroke="black" d="M739.839,-143.697C729.986,-134.965 717.882,-124.24 707.171,-114.75"/>
<polygon fill="black" stroke="black" points="709.477,-112.117 699.671,-108.104 704.834,-117.356 709.477,-112.117"/>
</g>
<!-- [root] aws_instance.west_backend -->
<g id="node3" class="node"><title>[root] aws_instance.west_backend</title>
<polygon fill="none" stroke="black" points="362.867,-180 143.867,-180 143.867,-144 362.867,-144 362.867,-180"/>
<text text-anchor="middle" x="253.367" y="-158.3" font-family="Times,serif" font-size="14.00">aws_instance.west_backend</text>
</g>
<!-- [root] provider.aws.us&#45;west&#45;1 -->
<g id="node8" class="node"><title>[root] provider.aws.us&#45;west&#45;1</title>
<polygon fill="none" stroke="black" points="166.367,-108 0.132431,-90 166.367,-72 332.602,-90 166.367,-108"/>
<text text-anchor="middle" x="166.367" y="-86.3" font-family="Times,serif" font-size="14.00">provider.aws.us&#45;west&#45;1</text>
</g>
<!-- [root] aws_instance.west_backend&#45;&gt;[root] provider.aws.us&#45;west&#45;1 -->
<g id="edge4" class="edge"><title>[root] aws_instance.west_backend&#45;&gt;[root] provider.aws.us&#45;west&#45;1</title>
<path fill="none" stroke="black" d="M231.862,-143.697C220.139,-134.265 205.525,-122.506 193.077,-112.49"/>
<polygon fill="black" stroke="black" points="195.247,-109.744 185.262,-106.202 190.859,-115.198 195.247,-109.744"/>
</g>
<!-- [root] var.zones_west -->
<g id="node10" class="node"><title>[root] var.zones_west</title>
<polygon fill="none" stroke="black" points="469.867,-108 350.867,-108 350.867,-72 475.867,-72 475.867,-102 469.867,-108"/>
<polyline fill="none" stroke="black" points="469.867,-108 469.867,-102 "/>
<polyline fill="none" stroke="black" points="475.867,-102 469.867,-102 "/>
<text text-anchor="middle" x="413.367" y="-86.3" font-family="Times,serif" font-size="14.00">var.zones_west</text>
</g>
<!-- [root] aws_instance.west_backend&#45;&gt;[root] var.zones_west -->
<g id="edge5" class="edge"><title>[root] aws_instance.west_backend&#45;&gt;[root] var.zones_west</title>
<path fill="none" stroke="black" d="M292.508,-143.876C314.381,-134.307 341.824,-122.3 365.03,-112.148"/>
<polygon fill="black" stroke="black" points="366.595,-115.283 374.354,-108.068 363.79,-108.87 366.595,-115.283"/>
</g>
<!-- [root] aws_instance.west_frontend -->
<g id="node4" class="node"><title>[root] aws_instance.west_frontend</title>
<polygon fill="none" stroke="black" points="363.367,-252 143.367,-252 143.367,-216 363.367,-216 363.367,-252"/>
<text text-anchor="middle" x="253.367" y="-230.3" font-family="Times,serif" font-size="14.00">aws_instance.west_frontend</text>
</g>
<!-- [root] aws_instance.west_frontend&#45;&gt;[root] aws_instance.west_backend -->
<g id="edge6" class="edge"><title>[root] aws_instance.west_frontend&#45;&gt;[root] aws_instance.west_backend</title>
<path fill="none" stroke="black" d="M253.367,-215.697C253.367,-207.983 253.367,-198.712 253.367,-190.112"/>
<polygon fill="black" stroke="black" points="256.868,-190.104 253.367,-180.104 249.868,-190.104 256.868,-190.104"/>
</g>
<!-- [root] output.PublicIP_East_Backend -->
<g id="node5" class="node"><title>[root] output.PublicIP_East_Backend</title>
<polygon fill="none" stroke="black" points="626.867,-180 393.867,-180 393.867,-144 632.867,-144 632.867,-174 626.867,-180"/>
<polyline fill="none" stroke="black" points="626.867,-180 626.867,-174 "/>
<polyline fill="none" stroke="black" points="632.867,-174 626.867,-174 "/>
<text text-anchor="middle" x="513.367" y="-158.3" font-family="Times,serif" font-size="14.00">output.PublicIP_East_Backend</text>
</g>
<!-- [root] output.PublicIP_East_Backend&#45;&gt;[root] aws_instance.east_backend -->
<g id="edge10" class="edge"><title>[root] output.PublicIP_East_Backend&#45;&gt;[root] aws_instance.east_backend</title>
<path fill="none" stroke="black" d="M554.22,-143.876C577.152,-134.264 605.949,-122.193 630.238,-112.013"/>
<polygon fill="black" stroke="black" points="631.778,-115.162 639.647,-108.068 629.072,-108.706 631.778,-115.162"/>
</g>
<!-- [root] output.PublicIP_East_Frontend -->
<g id="node6" class="node"><title>[root] output.PublicIP_East_Frontend</title>
<polygon fill="none" stroke="black" points="777.367,-252 541.367,-252 541.367,-216 783.367,-216 783.367,-246 777.367,-252"/>
<polyline fill="none" stroke="black" points="777.367,-252 777.367,-246 "/>
<polyline fill="none" stroke="black" points="783.367,-246 777.367,-246 "/>
<text text-anchor="middle" x="662.367" y="-230.3" font-family="Times,serif" font-size="14.00">output.PublicIP_East_Frontend</text>
</g>
<!-- [root] output.PublicIP_East_Frontend&#45;&gt;[root] aws_instance.east_frontend -->
<g id="edge11" class="edge"><title>[root] output.PublicIP_East_Frontend&#45;&gt;[root] aws_instance.east_frontend</title>
<path fill="none" stroke="black" d="M686.345,-215.697C698.679,-206.796 713.884,-195.823 727.22,-186.199"/>
<polygon fill="black" stroke="black" points="729.605,-188.794 735.666,-180.104 725.509,-183.118 729.605,-188.794"/>
</g>
<!-- [root] meta.count&#45;boundary (EachMode fixup) -->
<g id="node11" class="node"><title>[root] meta.count&#45;boundary (EachMode fixup)</title>
<ellipse fill="none" stroke="black" cx="662.367" cy="-306" rx="224.46" ry="18"/>
<text text-anchor="middle" x="662.367" y="-302.3" font-family="Times,serif" font-size="14.00">[root] meta.count&#45;boundary (EachMode fixup)</text>
</g>
<!-- [root] meta.count&#45;boundary (EachMode fixup)&#45;&gt;[root] aws_instance.west_frontend -->
<g id="edge7" class="edge"><title>[root] meta.count&#45;boundary (EachMode fixup)&#45;&gt;[root] aws_instance.west_frontend</title>
<path fill="none" stroke="black" d="M571.851,-289.508C510.192,-278.955 428.222,-264.926 362.883,-253.743"/>
<polygon fill="black" stroke="black" points="363.404,-250.282 352.957,-252.045 362.223,-257.181 363.404,-250.282"/>
</g>
<!-- [root] meta.count&#45;boundary (EachMode fixup)&#45;&gt;[root] output.PublicIP_East_Backend -->
<g id="edge8" class="edge"><title>[root] meta.count&#45;boundary (EachMode fixup)&#45;&gt;[root] output.PublicIP_East_Backend</title>
<path fill="none" stroke="black" d="M588.729,-288.912C567.826,-281.001 546.84,-269.287 532.367,-252 518.058,-234.907 513.75,-209.621 512.766,-190.365"/>
<polygon fill="black" stroke="black" points="516.259,-190.018 512.519,-180.105 509.261,-190.186 516.259,-190.018"/>
</g>
<!-- [root] meta.count&#45;boundary (EachMode fixup)&#45;&gt;[root] output.PublicIP_East_Frontend -->
<g id="edge9" class="edge"><title>[root] meta.count&#45;boundary (EachMode fixup)&#45;&gt;[root] output.PublicIP_East_Frontend</title>
<path fill="none" stroke="black" d="M662.367,-287.697C662.367,-279.983 662.367,-270.712 662.367,-262.112"/>
<polygon fill="black" stroke="black" points="665.868,-262.104 662.367,-252.104 658.868,-262.104 665.868,-262.104"/>
</g>
<!-- [root] provider.aws (close) -->
<g id="node12" class="node"><title>[root] provider.aws (close)</title>
<ellipse fill="none" stroke="black" cx="934.367" cy="-234" rx="132.677" ry="18"/>
<text text-anchor="middle" x="934.367" y="-230.3" font-family="Times,serif" font-size="14.00">[root] provider.aws (close)</text>
</g>
<!-- [root] provider.aws (close)&#45;&gt;[root] aws_instance.east_frontend -->
<g id="edge12" class="edge"><title>[root] provider.aws (close)&#45;&gt;[root] aws_instance.east_frontend</title>
<path fill="none" stroke="black" d="M893.779,-216.765C869.229,-206.945 837.684,-194.327 811.324,-183.783"/>
<polygon fill="black" stroke="black" points="812.454,-180.465 801.87,-180.001 809.855,-186.965 812.454,-180.465"/>
</g>
<!-- [root] provider.aws.us&#45;west&#45;1 (close) -->
<g id="node13" class="node"><title>[root] provider.aws.us&#45;west&#45;1 (close)</title>
<ellipse fill="none" stroke="black" cx="240.367" cy="-306" rx="180.068" ry="18"/>
<text text-anchor="middle" x="240.367" y="-302.3" font-family="Times,serif" font-size="14.00">[root] provider.aws.us&#45;west&#45;1 (close)</text>
</g>
<!-- [root] provider.aws.us&#45;west&#45;1 (close)&#45;&gt;[root] aws_instance.west_frontend -->
<g id="edge13" class="edge"><title>[root] provider.aws.us&#45;west&#45;1 (close)&#45;&gt;[root] aws_instance.west_frontend</title>
<path fill="none" stroke="black" d="M243.581,-287.697C245.014,-279.983 246.735,-270.712 248.332,-262.112"/>
<polygon fill="black" stroke="black" points="251.806,-262.575 250.191,-252.104 244.924,-261.297 251.806,-262.575"/>
</g>
<!-- [root] root -->
<g id="node14" class="node"><title>[root] root</title>
<ellipse fill="none" stroke="black" cx="662.367" cy="-378" rx="58.4896" ry="18"/>
<text text-anchor="middle" x="662.367" y="-374.3" font-family="Times,serif" font-size="14.00">[root] root</text>
</g>
<!-- [root] root&#45;&gt;[root] meta.count&#45;boundary (EachMode fixup) -->
<g id="edge14" class="edge"><title>[root] root&#45;&gt;[root] meta.count&#45;boundary (EachMode fixup)</title>
<path fill="none" stroke="black" d="M662.367,-359.697C662.367,-351.983 662.367,-342.712 662.367,-334.112"/>
<polygon fill="black" stroke="black" points="665.868,-334.104 662.367,-324.104 658.868,-334.104 665.868,-334.104"/>
</g>
<!-- [root] root&#45;&gt;[root] provider.aws (close) -->
<g id="edge15" class="edge"><title>[root] root&#45;&gt;[root] provider.aws (close)</title>
<path fill="none" stroke="black" d="M715.712,-370.498C775.735,-362.23 868.388,-346.3 895.367,-324 914.191,-308.441 924.197,-282.019 929.338,-261.994"/>
<polygon fill="black" stroke="black" points="932.761,-262.729 931.605,-252.198 925.941,-261.152 932.761,-262.729"/>
</g>
<!-- [root] root&#45;&gt;[root] provider.aws.us&#45;west&#45;1 (close) -->
<g id="edge16" class="edge"><title>[root] root&#45;&gt;[root] provider.aws.us&#45;west&#45;1 (close)</title>
<path fill="none" stroke="black" d="M611.884,-368.626C544.753,-357.49 424.645,-337.567 339.173,-323.39"/>
<polygon fill="black" stroke="black" points="339.627,-319.917 329.189,-321.733 338.482,-326.823 339.627,-319.917"/>
</g>
</g>
</svg>
