<?xml version="1.0" encoding="UTF-8" standalone="no"?>
<!DOCTYPE svg PUBLIC "-//W3C//DTD SVG 1.1//EN"
 "http://www.w3.org/Graphics/SVG/1.1/DTD/svg11.dtd">
<!-- Generated by graphviz version 2.38.0 (20140413.2041)
 -->
<!-- Title: %3 Pages: 1 -->
<svg width="740pt" height="332pt"
 viewBox="0.00 0.00 739.82 332.00" xmlns="http://www.w3.org/2000/svg" xmlns:xlink="http://www.w3.org/1999/xlink">
<g id="graph0" class="graph" transform="scale(1 1) rotate(0) translate(4 328)">
<title>%3</title>
<polygon fill="white" stroke="none" points="-4,4 -4,-328 735.818,-328 735.818,4 -4,4"/>
<!-- [root] aws_instance.backend -->
<g id="node1" class="node"><title>[root] aws_instance.backend</title>
<polygon fill="none" stroke="black" points="500.23,-108 322.23,-108 322.23,-72 500.23,-72 500.23,-108"/>
<text text-anchor="middle" x="411.23" y="-86.3" font-family="Times,serif" font-size="14.00">aws_instance.backend</text>
</g>
<!-- [root] provider.aws -->
<g id="node3" class="node"><title>[root] provider.aws</title>
<polygon fill="none" stroke="black" points="411.23,-36 312.192,-18 411.23,-3.55271e-15 510.269,-18 411.23,-36"/>
<text text-anchor="middle" x="411.23" y="-14.3" font-family="Times,serif" font-size="14.00">provider.aws</text>
</g>
<!-- [root] aws_instance.backend&#45;&gt;[root] provider.aws -->
<g id="edge1" class="edge"><title>[root] aws_instance.backend&#45;&gt;[root] provider.aws</title>
<path fill="none" stroke="black" d="M411.23,-71.6966C411.23,-63.9827 411.23,-54.7125 411.23,-46.1124"/>
<polygon fill="black" stroke="black" points="414.73,-46.1043 411.23,-36.1043 407.73,-46.1044 414.73,-46.1043"/>
</g>
<!-- [root] aws_instance.frontend -->
<g id="node2" class="node"><title>[root] aws_instance.frontend</title>
<polygon fill="none" stroke="black" points="500.73,-180 321.73,-180 321.73,-144 500.73,-144 500.73,-180"/>
<text text-anchor="middle" x="411.23" y="-158.3" font-family="Times,serif" font-size="14.00">aws_instance.frontend</text>
</g>
<!-- [root] aws_instance.frontend&#45;&gt;[root] aws_instance.backend -->
<g id="edge2" class="edge"><title>[root] aws_instance.frontend&#45;&gt;[root] aws_instance.backend</title>
<path fill="none" stroke="black" d="M411.23,-143.697C411.23,-135.983 411.23,-126.712 411.23,-118.112"/>
<polygon fill="black" stroke="black" points="414.73,-118.104 411.23,-108.104 407.73,-118.104 414.73,-118.104"/>
</g>
<!-- [root] meta.count&#45;boundary (EachMode fixup) -->
<g id="node4" class="node"><title>[root] meta.count&#45;boundary (EachMode fixup)</title>
<ellipse fill="none" stroke="black" cx="224.23" cy="-234" rx="224.46" ry="18"/>
<text text-anchor="middle" x="224.23" y="-230.3" font-family="Times,serif" font-size="14.00">[root] meta.count&#45;boundary (EachMode fixup)</text>
</g>
<!-- [root] meta.count&#45;boundary (EachMode fixup)&#45;&gt;[root] aws_instance.frontend -->
<g id="edge3" class="edge"><title>[root] meta.count&#45;boundary (EachMode fixup)&#45;&gt;[root] aws_instance.frontend</title>
<path fill="none" stroke="black" d="M269.021,-216.233C295.118,-206.464 328.239,-194.066 355.95,-183.693"/>
<polygon fill="black" stroke="black" points="357.367,-186.9 365.505,-180.116 354.913,-180.344 357.367,-186.9"/>
</g>
<!-- [root] provider.aws (close) -->
<g id="node5" class="node"><title>[root] provider.aws (close)</title>
<ellipse fill="none" stroke="black" cx="599.23" cy="-234" rx="132.677" ry="18"/>
<text text-anchor="middle" x="599.23" y="-230.3" font-family="Times,serif" font-size="14.00">[root] provider.aws (close)</text>
</g>
<!-- [root] provider.aws (close)&#45;&gt;[root] aws_instance.frontend -->
<g id="edge4" class="edge"><title>[root] provider.aws (close)&#45;&gt;[root] aws_instance.frontend</title>
<path fill="none" stroke="black" d="M556.099,-216.941C529.51,-207.04 495.15,-194.247 466.566,-183.604"/>
<polygon fill="black" stroke="black" points="467.707,-180.294 457.114,-180.084 465.264,-186.854 467.707,-180.294"/>
</g>
<!-- [root] root -->
<g id="node6" class="node"><title>[root] root</title>
<ellipse fill="none" stroke="black" cx="411.23" cy="-306" rx="58.4896" ry="18"/>
<text text-anchor="middle" x="411.23" y="-302.3" font-family="Times,serif" font-size="14.00">[root] root</text>
</g>
<!-- [root] root&#45;&gt;[root] meta.count&#45;boundary (EachMode fixup) -->
<g id="edge5" class="edge"><title>[root] root&#45;&gt;[root] meta.count&#45;boundary (EachMode fixup)</title>
<path fill="none" stroke="black" d="M375.617,-291.669C348.151,-281.387 309.698,-266.993 278.42,-255.285"/>
<polygon fill="black" stroke="black" points="279.556,-251.973 268.964,-251.745 277.102,-258.529 279.556,-251.973"/>
</g>
<!-- [root] root&#45;&gt;[root] provider.aws (close) -->
<g id="edge6" class="edge"><title>[root] root&#45;&gt;[root] provider.aws (close)</title>
<path fill="none" stroke="black" d="M447.034,-291.669C475.13,-281.208 514.661,-266.489 546.393,-254.673"/>
<polygon fill="black" stroke="black" points="547.819,-257.877 555.969,-251.108 545.376,-251.317 547.819,-257.877"/>
</g>
</g>
</svg>
