<?xml version="1.0" encoding="UTF-8" standalone="no"?>
<!DOCTYPE svg PUBLIC "-//W3C//DTD SVG 1.1//EN"
 "http://www.w3.org/Graphics/SVG/1.1/DTD/svg11.dtd">
<!-- Generated by graphviz version 2.38.0 (20140413.2041)
 -->
<!-- Title: %3 Pages: 1 -->
<svg width="801pt" height="332pt"
 viewBox="0.00 0.00 801.23 332.00" xmlns="http://www.w3.org/2000/svg" xmlns:xlink="http://www.w3.org/1999/xlink">
<g id="graph0" class="graph" transform="scale(1 1) rotate(0) translate(4 328)">
<title>%3</title>
<polygon fill="white" stroke="none" points="-4,4 -4,-328 797.23,-328 797.23,4 -4,4"/>
<!-- [root] aws_elb.bar -->
<g id="node1" class="node"><title>[root] aws_elb.bar</title>
<polygon fill="none" stroke="black" points="593.23,-180 491.23,-180 491.23,-144 593.23,-144 593.23,-180"/>
<text text-anchor="middle" x="542.23" y="-158.3" font-family="Times,serif" font-size="14.00">aws_elb.bar</text>
</g>
<!-- [root] provider.aws -->
<g id="node3" class="node"><title>[root] provider.aws</title>
<polygon fill="none" stroke="black" points="372.23,-108 273.192,-90 372.23,-72 471.269,-90 372.23,-108"/>
<text text-anchor="middle" x="372.23" y="-86.3" font-family="Times,serif" font-size="14.00">provider.aws</text>
</g>
<!-- [root] aws_elb.bar&#45;&gt;[root] provider.aws -->
<g id="edge1" class="edge"><title>[root] aws_elb.bar&#45;&gt;[root] provider.aws</title>
<path fill="none" stroke="black" d="M500.643,-143.876C473.066,-132.521 437.156,-117.734 410.324,-106.686"/>
<polygon fill="black" stroke="black" points="411.461,-103.369 400.881,-102.798 408.795,-109.841 411.461,-103.369"/>
</g>
<!-- [root] var.az -->
<g id="node4" class="node"><title>[root] var.az</title>
<polygon fill="none" stroke="black" points="542.73,-108 489.73,-108 489.73,-72 548.73,-72 548.73,-102 542.73,-108"/>
<polyline fill="none" stroke="black" points="542.73,-108 542.73,-102 "/>
<polyline fill="none" stroke="black" points="548.73,-102 542.73,-102 "/>
<text text-anchor="middle" x="519.23" y="-86.3" font-family="Times,serif" font-size="14.00">var.az</text>
</g>
<!-- [root] aws_elb.bar&#45;&gt;[root] var.az -->
<g id="edge2" class="edge"><title>[root] aws_elb.bar&#45;&gt;[root] var.az</title>
<path fill="none" stroke="black" d="M536.545,-143.697C533.982,-135.898 530.897,-126.509 528.045,-117.829"/>
<polygon fill="black" stroke="black" points="531.297,-116.512 524.85,-108.104 524.647,-118.697 531.297,-116.512"/>
</g>
<!-- [root] var.elb_name -->
<g id="node5" class="node"><title>[root] var.elb_name</title>
<polygon fill="none" stroke="black" points="671.73,-108 566.73,-108 566.73,-72 677.73,-72 677.73,-102 671.73,-108"/>
<polyline fill="none" stroke="black" points="671.73,-108 671.73,-102 "/>
<polyline fill="none" stroke="black" points="677.73,-102 671.73,-102 "/>
<text text-anchor="middle" x="622.23" y="-86.3" font-family="Times,serif" font-size="14.00">var.elb_name</text>
</g>
<!-- [root] aws_elb.bar&#45;&gt;[root] var.elb_name -->
<g id="edge3" class="edge"><title>[root] aws_elb.bar&#45;&gt;[root] var.elb_name</title>
<path fill="none" stroke="black" d="M562.005,-143.697C571.984,-134.965 584.241,-124.24 595.087,-114.75"/>
<polygon fill="black" stroke="black" points="597.461,-117.323 602.682,-108.104 592.852,-112.055 597.461,-117.323"/>
</g>
<!-- [root] var.timeout -->
<g id="node7" class="node"><title>[root] var.timeout</title>
<polygon fill="none" stroke="black" points="787.23,-108 695.23,-108 695.23,-72 793.23,-72 793.23,-102 787.23,-108"/>
<polyline fill="none" stroke="black" points="787.23,-108 787.23,-102 "/>
<polyline fill="none" stroke="black" points="793.23,-102 787.23,-102 "/>
<text text-anchor="middle" x="744.23" y="-86.3" font-family="Times,serif" font-size="14.00">var.timeout</text>
</g>
<!-- [root] aws_elb.bar&#45;&gt;[root] var.timeout -->
<g id="edge4" class="edge"><title>[root] aws_elb.bar&#45;&gt;[root] var.timeout</title>
<path fill="none" stroke="black" d="M591.387,-143.966C619.839,-134.106 655.821,-121.637 685.725,-111.274"/>
<polygon fill="black" stroke="black" points="686.901,-114.571 695.204,-107.989 684.609,-107.957 686.901,-114.571"/>
</g>
<!-- [root] aws_iam_user.lb -->
<g id="node2" class="node"><title>[root] aws_iam_user.lb</title>
<polygon fill="none" stroke="black" points="348.23,-180 214.23,-180 214.23,-144 348.23,-144 348.23,-180"/>
<text text-anchor="middle" x="281.23" y="-158.3" font-family="Times,serif" font-size="14.00">aws_iam_user.lb</text>
</g>
<!-- [root] aws_iam_user.lb&#45;&gt;[root] provider.aws -->
<g id="edge5" class="edge"><title>[root] aws_iam_user.lb&#45;&gt;[root] provider.aws</title>
<path fill="none" stroke="black" d="M303.724,-143.697C316.626,-133.772 332.876,-121.272 346.312,-110.937"/>
<polygon fill="black" stroke="black" points="348.466,-113.696 354.258,-104.825 344.198,-108.147 348.466,-113.696"/>
</g>
<!-- [root] var.usernumber -->
<g id="node8" class="node"><title>[root] var.usernumber</title>
<polygon fill="none" stroke="black" points="249.23,-108 125.23,-108 125.23,-72 255.23,-72 255.23,-102 249.23,-108"/>
<polyline fill="none" stroke="black" points="249.23,-108 249.23,-102 "/>
<polyline fill="none" stroke="black" points="255.23,-102 249.23,-102 "/>
<text text-anchor="middle" x="190.23" y="-86.3" font-family="Times,serif" font-size="14.00">var.usernumber</text>
</g>
<!-- [root] aws_iam_user.lb&#45;&gt;[root] var.usernumber -->
<g id="edge6" class="edge"><title>[root] aws_iam_user.lb&#45;&gt;[root] var.usernumber</title>
<path fill="none" stroke="black" d="M258.736,-143.697C247.275,-134.881 233.172,-124.032 220.747,-114.474"/>
<polygon fill="black" stroke="black" points="222.526,-111.427 212.466,-108.104 218.258,-116.976 222.526,-111.427"/>
</g>
<!-- [root] var.region -->
<g id="node6" class="node"><title>[root] var.region</title>
<polygon fill="none" stroke="black" points="410.73,-36 327.73,-36 327.73,-0 416.73,-0 416.73,-30 410.73,-36"/>
<polyline fill="none" stroke="black" points="410.73,-36 410.73,-30 "/>
<polyline fill="none" stroke="black" points="416.73,-30 410.73,-30 "/>
<text text-anchor="middle" x="372.23" y="-14.3" font-family="Times,serif" font-size="14.00">var.region</text>
</g>
<!-- [root] provider.aws&#45;&gt;[root] var.region -->
<g id="edge11" class="edge"><title>[root] provider.aws&#45;&gt;[root] var.region</title>
<path fill="none" stroke="black" d="M372.23,-71.6966C372.23,-63.9827 372.23,-54.7125 372.23,-46.1124"/>
<polygon fill="black" stroke="black" points="375.73,-46.1043 372.23,-36.1043 368.73,-46.1044 375.73,-46.1043"/>
</g>
<!-- [root] meta.count&#45;boundary (EachMode fixup) -->
<g id="node9" class="node"><title>[root] meta.count&#45;boundary (EachMode fixup)</title>
<ellipse fill="none" stroke="black" cx="224.23" cy="-234" rx="224.46" ry="18"/>
<text text-anchor="middle" x="224.23" y="-230.3" font-family="Times,serif" font-size="14.00">[root] meta.count&#45;boundary (EachMode fixup)</text>
</g>
<!-- [root] meta.count&#45;boundary (EachMode fixup)&#45;&gt;[root] aws_elb.bar -->
<g id="edge7" class="edge"><title>[root] meta.count&#45;boundary (EachMode fixup)&#45;&gt;[root] aws_elb.bar</title>
<path fill="none" stroke="black" d="M297.186,-216.941C352.828,-204.692 428.587,-188.016 481.075,-176.462"/>
<polygon fill="black" stroke="black" points="481.908,-179.862 490.921,-174.294 480.403,-173.026 481.908,-179.862"/>
</g>
<!-- [root] meta.count&#45;boundary (EachMode fixup)&#45;&gt;[root] aws_iam_user.lb -->
<g id="edge8" class="edge"><title>[root] meta.count&#45;boundary (EachMode fixup)&#45;&gt;[root] aws_iam_user.lb</title>
<path fill="none" stroke="black" d="M238.32,-215.697C245.154,-207.305 253.487,-197.07 260.986,-187.861"/>
<polygon fill="black" stroke="black" points="263.702,-190.069 267.302,-180.104 258.274,-185.649 263.702,-190.069"/>
</g>
<!-- [root] provider.aws (close) -->
<g id="node10" class="node"><title>[root] provider.aws (close)</title>
<ellipse fill="none" stroke="black" cx="599.23" cy="-234" rx="132.677" ry="18"/>
<text text-anchor="middle" x="599.23" y="-230.3" font-family="Times,serif" font-size="14.00">[root] provider.aws (close)</text>
</g>
<!-- [root] provider.aws (close)&#45;&gt;[root] aws_elb.bar -->
<g id="edge9" class="edge"><title>[root] provider.aws (close)&#45;&gt;[root] aws_elb.bar</title>
<path fill="none" stroke="black" d="M585.432,-216.055C578.603,-207.668 570.222,-197.376 562.666,-188.096"/>
<polygon fill="black" stroke="black" points="565.325,-185.82 556.297,-180.275 559.897,-190.24 565.325,-185.82"/>
</g>
<!-- [root] provider.aws (close)&#45;&gt;[root] aws_iam_user.lb -->
<g id="edge10" class="edge"><title>[root] provider.aws (close)&#45;&gt;[root] aws_iam_user.lb</title>
<path fill="none" stroke="black" d="M532.567,-218.326C481.751,-207.14 411.679,-191.715 358.429,-179.993"/>
<polygon fill="black" stroke="black" points="358.871,-176.507 348.352,-177.775 357.366,-183.343 358.871,-176.507"/>
</g>
<!-- [root] root -->
<g id="node11" class="node"><title>[root] root</title>
<ellipse fill="none" stroke="black" cx="411.23" cy="-306" rx="58.4896" ry="18"/>
<text text-anchor="middle" x="411.23" y="-302.3" font-family="Times,serif" font-size="14.00">[root] root</text>
</g>
<!-- [root] root&#45;&gt;[root] meta.count&#45;boundary (EachMode fixup) -->
<g id="edge12" class="edge"><title>[root] root&#45;&gt;[root] meta.count&#45;boundary (EachMode fixup)</title>
<path fill="none" stroke="black" d="M375.617,-291.669C348.151,-281.387 309.698,-266.993 278.42,-255.285"/>
<polygon fill="black" stroke="black" points="279.556,-251.973 268.964,-251.745 277.102,-258.529 279.556,-251.973"/>
</g>
<!-- [root] root&#45;&gt;[root] provider.aws (close) -->
<g id="edge13" class="edge"><title>[root] root&#45;&gt;[root] provider.aws (close)</title>
<path fill="none" stroke="black" d="M447.034,-291.669C475.13,-281.208 514.661,-266.489 546.393,-254.673"/>
<polygon fill="black" stroke="black" points="547.819,-257.877 555.969,-251.108 545.376,-251.317 547.819,-257.877"/>
</g>
</g>
</svg>
