<?xml version="1.0" encoding="UTF-8" standalone="no"?>
<!DOCTYPE svg PUBLIC "-//W3C//DTD SVG 1.1//EN"
 "http://www.w3.org/Graphics/SVG/1.1/DTD/svg11.dtd">
<!-- Generated by graphviz version 2.38.0 (20140413.2041)
 -->
<!-- Title: %3 Pages: 1 -->
<svg width="1071pt" height="260pt"
 viewBox="0.00 0.00 1071.22 260.00" xmlns="http://www.w3.org/2000/svg" xmlns:xlink="http://www.w3.org/1999/xlink">
<g id="graph0" class="graph" transform="scale(1 1) rotate(0) translate(4 256)">
<title>%3</title>
<polygon fill="white" stroke="none" points="-4,4 -4,-256 1067.22,-256 1067.22,4 -4,4"/>
<!-- [root] aws_instance.frontend_east -->
<g id="node1" class="node"><title>[root] aws_instance.frontend_east</title>
<polygon fill="none" stroke="black" points="365.588,-108 149.588,-108 149.588,-72 365.588,-72 365.588,-108"/>
<text text-anchor="middle" x="257.588" y="-86.3" font-family="Times,serif" font-size="14.00">aws_instance.frontend_east</text>
</g>
<!-- [root] provider.aws -->
<g id="node3" class="node"><title>[root] provider.aws</title>
<polygon fill="none" stroke="black" points="257.588,-36 158.55,-18 257.588,-3.55271e-15 356.627,-18 257.588,-36"/>
<text text-anchor="middle" x="257.588" y="-14.3" font-family="Times,serif" font-size="14.00">provider.aws</text>
</g>
<!-- [root] aws_instance.frontend_east&#45;&gt;[root] provider.aws -->
<g id="edge1" class="edge"><title>[root] aws_instance.frontend_east&#45;&gt;[root] provider.aws</title>
<path fill="none" stroke="black" d="M257.588,-71.6966C257.588,-63.9827 257.588,-54.7125 257.588,-46.1124"/>
<polygon fill="black" stroke="black" points="261.088,-46.1043 257.588,-36.1043 254.088,-46.1044 261.088,-46.1043"/>
</g>
<!-- [root] aws_instance.frontend_west -->
<g id="node2" class="node"><title>[root] aws_instance.frontend_west</title>
<polygon fill="none" stroke="black" points="742.588,-108 522.588,-108 522.588,-72 742.588,-72 742.588,-108"/>
<text text-anchor="middle" x="632.588" y="-86.3" font-family="Times,serif" font-size="14.00">aws_instance.frontend_west</text>
</g>
<!-- [root] provider.aws.amit -->
<g id="node4" class="node"><title>[root] provider.aws.amit</title>
<polygon fill="none" stroke="black" points="632.588,-36 499.532,-18 632.588,-3.55271e-15 765.644,-18 632.588,-36"/>
<text text-anchor="middle" x="632.588" y="-14.3" font-family="Times,serif" font-size="14.00">provider.aws.amit</text>
</g>
<!-- [root] aws_instance.frontend_west&#45;&gt;[root] provider.aws.amit -->
<g id="edge2" class="edge"><title>[root] aws_instance.frontend_west&#45;&gt;[root] provider.aws.amit</title>
<path fill="none" stroke="black" d="M632.588,-71.6966C632.588,-63.9827 632.588,-54.7125 632.588,-46.1124"/>
<polygon fill="black" stroke="black" points="636.088,-46.1043 632.588,-36.1043 629.088,-46.1044 636.088,-46.1043"/>
</g>
<!-- [root] meta.count&#45;boundary (EachMode fixup) -->
<g id="node5" class="node"><title>[root] meta.count&#45;boundary (EachMode fixup)</title>
<ellipse fill="none" stroke="black" cx="507.588" cy="-162" rx="224.46" ry="18"/>
<text text-anchor="middle" x="507.588" y="-158.3" font-family="Times,serif" font-size="14.00">[root] meta.count&#45;boundary (EachMode fixup)</text>
</g>
<!-- [root] meta.count&#45;boundary (EachMode fixup)&#45;&gt;[root] aws_instance.frontend_east -->
<g id="edge3" class="edge"><title>[root] meta.count&#45;boundary (EachMode fixup)&#45;&gt;[root] aws_instance.frontend_east</title>
<path fill="none" stroke="black" d="M448.974,-144.588C412.939,-134.498 366.535,-121.505 328.444,-110.84"/>
<polygon fill="black" stroke="black" points="329.019,-107.366 318.445,-108.04 327.131,-114.107 329.019,-107.366"/>
</g>
<!-- [root] meta.count&#45;boundary (EachMode fixup)&#45;&gt;[root] aws_instance.frontend_west -->
<g id="edge4" class="edge"><title>[root] meta.count&#45;boundary (EachMode fixup)&#45;&gt;[root] aws_instance.frontend_west</title>
<path fill="none" stroke="black" d="M537.847,-144.055C554.46,-134.752 575.258,-123.105 593.132,-113.096"/>
<polygon fill="black" stroke="black" points="595.16,-115.971 602.175,-108.032 591.739,-109.864 595.16,-115.971"/>
</g>
<!-- [root] provider.aws (close) -->
<g id="node6" class="node"><title>[root] provider.aws (close)</title>
<ellipse fill="none" stroke="black" cx="132.588" cy="-162" rx="132.677" ry="18"/>
<text text-anchor="middle" x="132.588" y="-158.3" font-family="Times,serif" font-size="14.00">[root] provider.aws (close)</text>
</g>
<!-- [root] provider.aws (close)&#45;&gt;[root] aws_instance.frontend_east -->
<g id="edge5" class="edge"><title>[root] provider.aws (close)&#45;&gt;[root] aws_instance.frontend_east</title>
<path fill="none" stroke="black" d="M162.211,-144.411C178.811,-135.115 199.736,-123.398 217.753,-113.308"/>
<polygon fill="black" stroke="black" points="219.857,-116.141 226.872,-108.201 216.437,-110.033 219.857,-116.141"/>
</g>
<!-- [root] provider.aws.amit (close) -->
<g id="node7" class="node"><title>[root] provider.aws.amit (close)</title>
<ellipse fill="none" stroke="black" cx="906.588" cy="-162" rx="156.772" ry="18"/>
<text text-anchor="middle" x="906.588" y="-158.3" font-family="Times,serif" font-size="14.00">[root] provider.aws.amit (close)</text>
</g>
<!-- [root] provider.aws.amit (close)&#45;&gt;[root] aws_instance.frontend_west -->
<g id="edge6" class="edge"><title>[root] provider.aws.amit (close)&#45;&gt;[root] aws_instance.frontend_west</title>
<path fill="none" stroke="black" d="M845.438,-145.378C805.199,-135.098 752.212,-121.561 709.172,-110.565"/>
<polygon fill="black" stroke="black" points="709.861,-107.129 699.306,-108.045 708.129,-113.911 709.861,-107.129"/>
</g>
<!-- [root] root -->
<g id="node8" class="node"><title>[root] root</title>
<ellipse fill="none" stroke="black" cx="507.588" cy="-234" rx="58.4896" ry="18"/>
<text text-anchor="middle" x="507.588" y="-230.3" font-family="Times,serif" font-size="14.00">[root] root</text>
</g>
<!-- [root] root&#45;&gt;[root] meta.count&#45;boundary (EachMode fixup) -->
<g id="edge7" class="edge"><title>[root] root&#45;&gt;[root] meta.count&#45;boundary (EachMode fixup)</title>
<path fill="none" stroke="black" d="M507.588,-215.697C507.588,-207.983 507.588,-198.712 507.588,-190.112"/>
<polygon fill="black" stroke="black" points="511.088,-190.104 507.588,-180.104 504.088,-190.104 511.088,-190.104"/>
</g>
<!-- [root] root&#45;&gt;[root] provider.aws (close) -->
<g id="edge8" class="edge"><title>[root] root&#45;&gt;[root] provider.aws (close)</title>
<path fill="none" stroke="black" d="M458.948,-223.92C397.783,-212.503 291.765,-192.713 217.197,-178.794"/>
<polygon fill="black" stroke="black" points="217.823,-175.35 207.35,-176.956 216.538,-182.231 217.823,-175.35"/>
</g>
<!-- [root] root&#45;&gt;[root] provider.aws.amit (close) -->
<g id="edge9" class="edge"><title>[root] root&#45;&gt;[root] provider.aws.amit (close)</title>
<path fill="none" stroke="black" d="M557.315,-224.276C621.523,-213.011 734.507,-193.19 814.569,-179.144"/>
<polygon fill="black" stroke="black" points="815.41,-182.55 824.655,-177.374 814.2,-175.655 815.41,-182.55"/>
</g>
</g>
</svg>
